<svg xmlns="http://www.w3.org/2000/svg" width="1579" height="664" viewBox="0 0 1579 664">
<g>
<path d="M 284.96 462.45 C283.91,461.19 283.98,458.85 285.31,449.70 C287.89,431.88 288.28,423.30 287.06,411.00 C284.50,385.08 276.45,363.08 262.36,343.44 C244.62,318.71 237.54,298.31 237.56,272.00 C237.58,256.78 239.12,249.09 244.47,237.50 C250.32,224.81 261.66,212.28 272.09,206.96 L 275.81 205.05 L 277.02 210.28 C278.83,218.08 283.52,227.32 289.02,233.93 C297.29,243.87 314.34,253.81 331.17,258.51 C336.48,260.00 337.64,260.94 349.38,273.39 C359.93,284.58 362.92,287.15 368.21,289.58 C385.42,297.49 406.59,289.30 413.02,272.26 C414.76,267.65 415.11,265.01 414.76,259.00 C414.21,249.44 412.56,246.17 399.55,229.00 C393.93,221.57 388.60,214.38 387.71,213.00 C386.82,211.62 384.93,204.96 383.50,198.19 C377.64,170.46 366.73,148.41 349.06,128.64 C341.25,119.90 337.32,112.82 336.17,105.42 C335.74,102.72 335.90,87.90 336.51,72.50 C337.13,57.10 337.53,44.35 337.40,44.17 C337.28,43.99 324.42,53.19 308.84,64.61 C293.25,76.04 279.83,85.31 279.00,85.22 C278.17,85.13 270.25,84.76 261.39,84.40 C200.22,81.92 140.49,106.64 101.82,150.44 C74.06,181.89 61.19,209.07 55.38,248.50 C53.18,263.41 53.95,292.44 56.89,305.72 C63.70,336.54 76.16,358.29 101.45,383.51 C123.28,405.28 142.34,419.29 166.72,431.47 C178.76,437.49 195.18,443.83 203.00,445.48 C209.78,446.91 212.14,451.55 207.60,454.53 C205.41,455.96 204.64,455.96 199.10,454.53 C160.21,444.45 116.31,416.07 84.95,380.73 C55.72,347.79 42.52,310.54 44.30,266.00 C45.33,240.13 52.81,209.32 62.98,189.00 C69.09,176.81 80.54,159.97 91.31,147.38 C124.59,108.44 170.01,84.07 223.50,76.46 C229.00,75.68 236.06,75.03 239.19,75.02 C248.18,74.99 246.87,73.35 236.25,71.34 C228.64,69.90 221.90,69.51 205.50,69.56 C186.73,69.61 183.17,69.90 171.98,72.27 C149.97,76.93 127.02,85.87 108.26,97.09 C88.35,109.00 65.17,129.08 52.38,145.50 C29.94,174.31 15.39,210.39 10.92,248.35 C9.17,263.16 10.24,297.70 12.87,311.50 C15.62,325.92 19.12,338.75 23.47,350.36 C25.41,355.54 27.00,360.47 27.00,361.32 C27.00,363.46 24.24,366.00 21.91,366.00 C19.08,366.00 16.69,361.39 11.61,346.08 C-14.63,267.09 4.71,178.94 60.68,122.34 C91.44,91.23 133.17,69.34 177.00,61.32 C190.12,58.92 222.82,58.87 235.50,61.24 C247.55,63.49 260.81,67.38 270.28,71.46 L 278.05 74.80 L 306.66 53.90 C331.65,35.64 335.73,33.00 338.96,33.00 C341.59,33.00 343.32,33.71 344.97,35.47 C347.15,37.79 347.29,38.65 347.11,49.46 C347.00,55.79 346.53,69.96 346.05,80.93 C344.88,107.89 345.38,109.82 356.61,122.24 C374.99,142.57 388.54,169.81 393.53,196.54 C394.45,201.47 395.65,206.34 396.20,207.36 C396.74,208.39 401.68,214.89 407.17,221.82 C418.88,236.58 421.25,240.44 423.55,248.44 C425.96,256.84 425.14,269.48 421.69,277.22 C413.22,296.20 390.17,306.34 369.86,300.02 C360.82,297.22 354.75,292.71 342.97,280.06 C334.46,270.93 331.93,268.80 328.57,267.97 C320.04,265.85 306.04,259.76 298.86,255.04 C288.47,248.22 278.13,237.07 273.48,227.65 C269.24,219.09 269.06,219.07 262.58,226.63 C252.84,238.02 248.10,250.53 247.27,267.11 C246.00,292.14 252.58,312.51 269.55,336.11 C278.02,347.90 286.65,364.69 290.33,376.52 C295.09,391.82 296.16,398.84 296.70,418.00 C297.14,433.86 296.92,438.27 295.10,448.90 C293.94,455.73 292.49,461.91 291.87,462.65 C290.37,464.47 286.54,464.36 284.96,462.45 ZM 646.16 476.29 C645.62,475.30 630.72,444.11 613.03,406.99 C595.35,369.87 580.44,339.06 579.91,338.52 C579.28,337.89 579.04,358.74 579.22,397.37 L 579.50 457.20 L 582.00 459.16 C583.38,460.24 586.08,462.12 588.00,463.34 C590.46,464.90 591.60,466.44 591.84,468.48 C592.42,473.56 590.66,474.00 569.88,474.00 C554.18,474.00 550.89,473.75 549.57,472.43 C546.41,469.26 548.23,464.94 553.97,462.02 C555.38,461.30 556.51,460.91 557.41,460.23 C561.33,457.26 561.00,448.67 561.00,382.84 C561.00,338.96 560.62,309.13 560.04,307.61 C559.52,306.23 557.60,304.35 555.79,303.43 C548.08,299.53 545.79,294.50 550.36,291.50 C552.32,290.22 555.90,290.00 571.38,290.23 L 590.04 290.50 L 623.46 358.86 C641.84,396.45 657.07,427.40 657.29,427.63 C657.52,427.85 672.32,397.09 690.18,359.27 L 722.65 290.50 L 742.35 290.23 C764.93,289.92 766.27,290.24 765.81,295.78 C765.53,299.02 764.91,299.76 760.22,302.43 C756.10,304.78 754.73,306.20 753.92,308.97 C753.25,311.29 753.00,337.36 753.20,384.85 L 753.50 457.20 L 756.00 459.16 C757.38,460.24 760.08,462.12 762.00,463.34 C764.38,464.86 765.60,466.45 765.82,468.34 C766.47,473.90 766.00,474.00 738.90,474.00 L 714.05 474.00 L 712.50 471.63 C710.17,468.08 711.97,464.47 717.39,461.84 C719.83,460.65 722.33,458.74 722.94,457.59 C723.71,456.11 723.96,437.36 723.77,393.79 L 723.50 332.08 L 689.86 404.79 L 656.23 477.50 L 651.68 477.80 C648.11,478.04 646.92,477.71 646.16,476.29 ZM 995.05 472.56 C992.88,469.94 994.23,465.74 998.00,463.37 C999.92,462.17 1002.51,460.26 1003.75,459.13 L 1006.00 457.07 L 1006.00 307.18 L 1002.92 304.59 C1001.23,303.17 999.43,302.00 998.92,302.00 C998.42,302.00 997.10,301.10 996.00,300.00 C993.33,297.33 993.36,292.41 996.07,290.96 C997.53,290.18 1011.37,289.97 1042.82,290.24 C1085.06,290.60 1087.94,290.74 1095.50,292.82 C1112.23,297.41 1122.66,305.17 1128.31,317.25 C1135.36,332.31 1134.45,353.02 1126.17,366.07 C1119.99,375.82 1112.50,381.18 1098.54,385.87 C1093.78,387.47 1089.65,389.02 1089.37,389.30 C1089.09,389.58 1101.29,406.05 1116.48,425.90 C1136.82,452.47 1144.74,462.12 1146.55,462.49 C1147.90,462.77 1150.09,463.23 1151.43,463.50 C1154.29,464.09 1157.00,466.56 1157.00,468.57 C1157.00,469.36 1156.10,470.90 1155.00,472.00 C1153.14,473.86 1151.67,474.00 1134.10,474.00 L 1115.20 474.00 L 1110.35 468.68 C1107.68,465.75 1096.95,451.52 1086.50,437.06 C1076.05,422.60 1063.90,405.98 1059.50,400.14 L 1051.49 389.50 L 1043.75 389.21 L 1036.00 388.92 L 1036.00 457.10 L 1038.65 459.55 C1040.10,460.90 1041.82,462.00 1042.46,462.00 C1046.47,462.00 1049.66,469.94 1046.80,472.80 C1044.89,474.71 996.65,474.49 995.05,472.56 ZM 1246.57 472.43 C1245.71,471.56 1245.00,470.29 1245.00,469.60 C1245.00,467.75 1248.84,464.55 1254.50,461.70 C1257.25,460.32 1260.69,457.91 1262.15,456.34 C1263.78,454.60 1279.07,421.25 1301.62,370.25 L 1338.44 287.00 L 1350.68 287.00 L 1358.46 305.25 C1376.18,346.84 1420.09,448.26 1421.88,451.74 C1424.32,456.51 1427.22,459.14 1433.50,462.28 C1440.56,465.81 1442.64,468.31 1441.18,471.50 L 1440.04 474.00 L 1415.74 474.00 C1395.37,474.00 1391.09,473.75 1389.22,472.44 C1385.83,470.07 1386.36,466.23 1390.61,462.33 C1393.55,459.64 1394.10,458.55 1393.58,456.48 C1393.23,455.08 1388.85,444.49 1383.84,432.95 L 1374.73 411.97 L 1339.77 412.24 L 1304.81 412.50 L 1296.86 431.50 C1285.83,457.84 1285.36,459.37 1287.38,462.46 C1289.53,465.74 1289.43,470.30 1287.17,472.35 C1284.51,474.76 1248.97,474.83 1246.57,472.43 ZM 781.70 472.22 C779.09,469.33 781.59,466.07 789.93,461.48 C793.99,459.24 797.96,456.44 798.75,455.26 C799.53,454.07 816.68,415.85 836.85,370.30 L 873.52 287.50 L 886.14 287.50 L 889.75 296.00 C917.51,361.35 958.45,454.85 960.05,456.55 C961.18,457.75 964.44,459.99 967.30,461.51 C976.19,466.25 978.83,469.77 975.80,472.80 C974.93,473.67 967.91,474.00 950.49,474.00 C927.61,474.00 926.27,473.90 924.19,471.96 C921.13,469.11 921.45,466.93 925.50,463.00 C927.42,461.13 928.99,458.68 928.98,457.55 C928.96,456.42 924.75,445.83 919.62,434.00 L 910.29 412.50 L 875.30 412.24 L 840.32 411.97 L 831.16 433.89 C826.12,445.95 822.00,457.00 822.00,458.45 C822.00,459.91 822.70,462.45 823.55,464.10 C825.20,467.29 824.81,470.04 822.36,472.49 C821.13,473.73 817.47,474.00 802.08,474.00 C785.36,474.00 783.13,473.81 781.70,472.22 ZM 694.98 198.47 C692.79,195.84 695.34,192.36 701.87,189.07 C705.13,187.42 709.07,184.78 710.62,183.21 C712.55,181.26 725.05,154.14 750.17,97.43 L 786.89 14.50 L 800.09 14.50 L 825.09 72.50 C838.84,104.40 854.90,141.71 860.78,155.41 C867.38,170.78 872.49,181.34 874.15,182.99 C875.62,184.47 879.40,186.98 882.54,188.56 C889.35,192.01 891.66,194.90 890.04,197.93 C888.96,199.94 888.17,200.00 864.12,200.00 C841.35,200.00 839.17,199.85 837.65,198.17 C835.18,195.43 835.63,193.16 839.50,188.87 C841.42,186.74 843.00,184.49 843.00,183.88 C843.00,183.27 838.65,172.69 833.32,160.37 L 823.65 137.97 L 788.76 138.24 L 753.88 138.50 L 745.10 159.54 C734.66,184.57 734.50,185.12 736.48,188.96 C738.51,192.89 738.40,196.33 736.17,198.35 C733.54,200.73 696.94,200.84 694.98,198.47 ZM 930.00 203.89 C926.97,203.41 921.55,202.31 917.95,201.45 L 911.41 199.89 L 905.18 182.19 C901.75,172.46 898.96,163.49 898.97,162.25 C899.01,159.53 902.31,156.00 904.83,156.00 C907.22,156.00 909.73,158.93 914.81,167.65 C919.84,176.29 926.26,182.18 933.85,185.12 C941.80,188.20 962.11,188.98 970.60,186.53 C983.26,182.87 990.97,176.63 995.82,166.12 C997.90,161.62 998.50,158.56 998.82,150.75 C999.20,141.79 999.02,140.56 996.59,135.60 C991.34,124.86 983.69,121.50 954.30,117.03 C921.77,112.08 906.61,101.41 901.54,79.91 C898.51,67.04 900.71,51.50 907.16,40.22 C913.60,28.97 927.39,18.23 941.00,13.86 C950.13,10.93 969.35,10.23 981.65,12.37 C996.98,15.04 1018.00,23.83 1018.00,27.57 C1018.00,28.41 1017.30,35.26 1016.44,42.80 C1014.80,57.16 1014.01,59.00 1009.50,59.00 C1006.45,59.00 1004.72,57.27 1000.95,50.50 C994.32,38.60 981.14,28.96 969.50,27.50 C963.07,26.70 951.73,28.50 946.08,31.22 C936.79,35.69 930.96,44.32 928.85,56.74 C927.30,65.81 929.36,73.27 935.14,79.54 C940.62,85.48 945.67,87.17 969.35,90.98 C992.38,94.68 997.05,95.91 1006.30,100.75 C1023.47,109.72 1031.31,129.70 1026.53,152.29 C1021.30,176.95 996.56,198.40 967.51,203.47 C958.09,205.11 939.03,205.33 930.00,203.89 ZM 1480.00 477.45 C1475.32,476.70 1469.47,475.49 1467.00,474.76 L 1462.50 473.43 L 1456.30 456.47 C1449.26,437.20 1448.76,433.86 1452.58,431.36 C1456.84,428.56 1459.68,430.39 1464.40,438.98 C1474.22,456.89 1486.07,462.85 1509.74,461.77 C1517.64,461.41 1521.95,460.69 1525.96,459.07 C1541.98,452.59 1550.10,440.32 1550.17,422.45 C1550.22,408.70 1543.29,399.58 1529.65,395.46 C1526.82,394.61 1518.88,393.01 1512.00,391.92 C1484.16,387.48 1471.95,382.87 1462.99,373.40 C1444.79,354.15 1447.85,319.40 1469.42,300.38 C1475.53,294.99 1488.09,288.61 1497.00,286.38 C1506.84,283.91 1530.31,284.94 1542.72,288.39 C1552.58,291.12 1567.75,298.18 1568.61,300.44 C1569.18,301.92 1566.41,327.77 1565.40,330.41 C1564.49,332.78 1560.37,333.47 1557.68,331.71 C1556.42,330.88 1553.61,327.17 1551.44,323.46 C1541.56,306.56 1524.71,298.44 1506.82,301.95 C1491.12,305.04 1482.64,314.03 1479.87,330.50 C1478.86,336.49 1478.94,338.33 1480.37,343.25 C1483.97,355.53 1490.95,359.84 1513.20,363.48 C1547.12,369.04 1555.68,371.61 1564.02,378.75 C1576.47,389.41 1581.55,407.28 1577.53,426.26 C1573.14,446.97 1553.88,466.47 1530.00,474.37 C1515.94,479.02 1497.10,480.18 1480.00,477.45 ZM 548.82 197.51 C547.14,193.82 549.09,190.44 554.33,187.98 C556.76,186.83 559.23,184.79 559.86,183.41 C561.44,179.94 561.48,37.15 559.91,33.69 C559.30,32.37 556.72,30.16 554.16,28.78 C549.04,26.03 546.80,22.12 548.65,19.20 C549.61,17.67 552.34,17.50 575.50,17.50 C598.66,17.50 601.39,17.67 602.35,19.20 C604.20,22.13 601.97,26.11 597.09,28.56 C594.67,29.78 592.10,31.84 591.38,33.14 C590.34,35.02 590.06,50.39 590.04,109.25 L 590.00 183.00 L 618.25 182.98 C643.51,182.96 646.93,182.76 650.55,181.12 C653.08,179.97 658.31,175.28 664.52,168.60 C674.70,157.66 677.26,156.00 680.91,157.95 C684.00,159.61 683.59,163.25 678.14,182.50 L 673.33 199.50 L 611.65 199.76 L 549.96 200.02 ZM 1172.20 472.80 C1169.34,469.94 1172.53,462.00 1176.54,462.00 C1177.18,462.00 1178.90,460.90 1180.35,459.55 L 1183.00 457.10 L 1183.00 307.18 L 1179.92 304.59 C1178.23,303.17 1176.28,302.00 1175.58,302.00 C1171.44,302.00 1169.27,293.00 1172.93,291.04 C1174.11,290.41 1183.97,290.00 1198.00,290.00 C1212.03,290.00 1221.89,290.41 1223.07,291.04 C1224.41,291.76 1225.00,293.13 1225.00,295.58 C1225.00,298.48 1224.46,299.39 1221.87,300.80 C1220.15,301.73 1217.45,303.55 1215.87,304.84 L 1213.00 307.18 L 1213.00 457.07 L 1215.25 459.13 C1216.49,460.26 1219.07,462.17 1221.00,463.37 C1224.77,465.74 1226.12,469.94 1223.95,472.56 C1222.35,474.49 1174.11,474.71 1172.20,472.80 ZM 447.00 11.00 L 459.00 11.00 L 459.00 486.00 L 447.00 486.00 L 447.00 11.00 ZM 1079.68 372.40 C1090.43,368.46 1098.52,360.21 1101.13,350.52 C1101.73,348.31 1102.02,342.67 1101.79,338.00 C1101.09,324.23 1094.97,315.13 1082.50,309.30 C1076.65,306.57 1076.00,306.49 1056.25,306.16 L 1036.00 305.82 L 1036.00 375.21 L 1055.25 374.75 C1070.85,374.38 1075.48,373.94 1079.68,372.40 ZM 178.25 418.42 C155.58,406.65 130.08,387.65 115.79,371.90 C75.37,327.36 65.03,273.94 85.13,213.56 C92.79,190.56 104.43,169.89 119.31,152.87 C128.13,142.79 139.31,133.00 142.00,133.00 C143.72,133.00 147.00,136.40 147.00,138.18 C147.00,138.59 141.24,144.68 134.21,151.71 C119.39,166.52 111.58,177.41 102.98,195.26 C84.46,233.66 80.12,276.21 91.17,310.93 C104.06,351.44 137.01,386.43 184.88,410.44 C195.05,415.54 196.00,416.25 196.00,418.81 C196.00,425.64 191.97,425.55 178.25,418.42 ZM 816.83 122.12 C812.72,111.29 788.38,56.25 787.93,56.77 C787.20,57.63 761.91,118.69 761.23,121.25 C760.80,122.89 762.60,123.00 788.97,123.00 C804.72,123.00 817.02,122.61 816.83,122.12 ZM 1364.39 387.75 C1362.44,383.21 1356.08,368.35 1350.25,354.73 C1344.42,341.10 1339.35,330.30 1338.99,330.73 C1338.45,331.37 1314.52,388.59 1312.43,394.25 C1311.83,395.89 1313.54,396.00 1339.86,396.00 L 1367.92 396.00 ZM 902.71 394.75 C899.13,385.93 875.52,331.30 875.03,330.74 C874.52,330.15 861.51,360.32 848.30,392.75 L 846.97 396.00 L 875.09 396.00 C897.19,396.00 903.11,395.73 902.71,394.75 ZM 314.75 110.92 C313.30,110.08 313.00,108.44 313.00,101.45 C313.00,96.80 312.76,93.00 312.46,93.00 C312.16,93.00 309.01,94.98 305.47,97.41 C298.62,102.10 295.83,102.42 293.87,98.75 C292.26,95.74 294.74,93.10 309.25,82.39 L 322.00 72.98 L 322.00 90.93 C322.00,108.35 321.93,108.93 319.78,110.44 C317.19,112.25 317.06,112.27 314.75,110.92 ZM 345.25 166.75 C344.71,166.06 343.69,163.74 343.00,161.60 C342.28,159.35 339.47,155.39 336.37,152.24 C333.42,149.24 331.00,146.43 331.00,146.00 C331.00,145.57 331.82,144.20 332.83,142.96 C335.41,139.77 339.03,140.93 344.95,146.85 C353.77,155.67 356.22,168.00 349.15,168.00 C347.55,168.00 345.80,167.44 345.25,166.75 Z" fill="rgba(175,139,25,1)"/>
<path d="M 139.91 651.61 C122.36,646.55 109.03,631.97 104.54,612.91 C102.58,604.60 102.56,585.48 104.51,577.24 C107.85,563.06 117.92,549.62 129.42,543.97 C144.19,536.72 163.35,536.15 176.12,542.58 C184.26,546.68 188.83,554.71 186.01,559.98 C184.58,562.65 177.76,565.79 177.18,564.05 C176.97,563.41 175.38,561.00 173.65,558.69 C166.35,548.97 150.88,545.61 139.00,551.17 C124.74,557.84 116.59,573.27 116.64,593.50 C116.68,610.05 121.21,623.08 130.24,632.65 C137.23,640.05 143.18,642.47 154.50,642.48 C165.45,642.49 171.31,640.20 177.61,633.44 L 181.79 628.95 L 184.89 631.56 C191.61,637.22 187.36,645.40 175.26,650.08 C168.08,652.86 147.35,653.76 139.91,651.61 ZM 544.50 651.01 C537.64,646.51 527.55,631.19 519.04,612.37 C516.93,607.70 514.98,604.86 513.41,604.14 C511.64,603.33 511.00,602.24 511.00,600.02 L 511.00 597.00 L 518.75 596.98 C527.94,596.95 533.04,595.00 537.65,589.74 C541.93,584.87 543.48,579.86 543.42,571.00 C543.37,561.47 540.87,556.18 534.71,552.57 C529.28,549.39 517.34,547.52 508.52,548.46 L 502.00 549.16 L 502.02 585.33 C502.02,605.22 502.53,626.90 503.15,633.50 C504.99,653.27 505.41,651.45 498.94,651.79 C489.16,652.31 489.75,655.52 489.53,600.77 C489.42,574.77 488.97,550.53 488.54,546.89 L 487.74 540.28 L 490.62 539.65 C492.20,539.31 498.70,538.73 505.06,538.37 C538.29,536.48 555.61,546.33 557.66,568.28 C559.23,585.06 550.56,598.71 535.28,603.52 L 530.07 605.17 L 535.66 616.33 C546.45,637.85 550.25,641.99 559.23,642.00 C563.40,642.00 564.03,642.29 564.57,644.43 C566.04,650.28 562.42,653.00 553.20,652.99 C549.22,652.99 546.60,652.39 544.50,651.01 ZM 611.77 650.66 C596.66,645.51 586.94,635.29 580.78,618.09 C577.86,609.95 577.15,588.94 579.43,578.66 C583.99,558.18 598.02,543.43 616.73,539.47 C644.70,533.54 668.76,546.41 677.65,572.06 C681.06,581.89 681.99,600.71 679.62,612.00 C676.47,626.99 665.91,641.92 654.26,647.87 C643.13,653.54 623.94,654.80 611.77,650.66 ZM 646.29 639.18 C653.94,635.41 658.20,630.93 662.14,622.51 C666.06,614.15 667.33,606.34 666.70,594.50 C665.55,572.77 657.42,557.66 643.55,551.44 C625.43,543.32 605.01,550.99 596.03,569.31 C586.18,589.40 593.51,626.00 609.61,637.07 C616.46,641.79 621.20,643.02 631.13,642.69 C638.47,642.44 640.72,641.92 646.29,639.18 ZM 863.77 650.66 C850.88,646.26 840.65,636.97 834.99,624.50 C830.64,614.92 829.50,608.66 829.52,594.50 C829.53,583.95 829.95,580.18 831.73,574.50 C836.31,559.84 844.93,549.38 857.30,543.43 C880.38,532.34 912.96,539.75 912.99,556.10 C913.00,559.96 911.24,562.20 906.89,563.85 C904.50,564.76 904.02,564.48 901.19,560.47 C890.95,545.94 870.88,544.21 857.05,556.65 C851.27,561.84 845.56,572.45 844.00,580.89 C841.46,594.59 843.87,612.47 849.69,623.18 C856.52,635.72 865.68,641.96 878.48,642.78 C888.98,643.45 895.92,641.09 902.72,634.50 C907.65,629.73 908.11,629.50 910.46,630.73 C920.50,635.99 913.00,647.23 896.50,651.64 C888.21,653.86 871.70,653.36 863.77,650.66 ZM 958.20 651.11 C947.80,647.51 941.90,640.19 940.00,628.53 C939.38,624.67 939.39,612.00 940.05,592.47 C940.99,564.35 940.58,551.13 938.48,542.76 C937.86,540.29 938.07,540.11 942.35,539.47 C948.24,538.59 952.16,539.96 953.88,543.49 C955.05,545.89 955.08,550.43 954.06,572.42 C953.39,586.76 952.76,604.35 952.67,611.50 C952.51,623.85 952.64,624.78 955.26,630.13 C962.61,645.08 981.16,646.56 1001.13,633.78 L 1006.76 630.18 L 1007.38 609.34 C1007.72,597.88 1007.66,577.70 1007.25,564.50 C1006.75,548.72 1006.84,540.23 1007.50,539.71 C1009.07,538.46 1017.99,539.56 1019.62,541.20 C1020.44,542.01 1021.11,543.53 1021.12,544.59 C1021.14,545.64 1020.83,563.60 1020.44,584.50 C1019.94,611.48 1020.08,625.98 1020.93,634.50 C1021.59,641.10 1022.21,647.62 1022.31,649.00 C1022.49,651.36 1022.19,651.51 1017.00,651.76 C1013.97,651.90 1010.88,651.62 1010.12,651.12 C1009.37,650.63 1008.24,648.21 1007.61,645.73 L 1006.47 641.24 L 1000.00 645.15 C996.44,647.30 990.66,649.95 987.16,651.03 C978.80,653.61 965.56,653.65 958.20,651.11 ZM 1149.10 651.47 C1132.58,646.87 1125.95,636.90 1135.49,631.00 L 1138.99 628.84 L 1142.24 632.29 C1149.25,639.69 1163.45,644.19 1173.47,642.18 C1184.50,639.96 1191.00,633.01 1191.00,623.43 C1191.00,617.41 1188.01,612.11 1182.66,608.63 C1180.37,607.14 1172.19,603.92 1164.47,601.48 C1156.76,599.04 1148.34,595.70 1145.77,594.07 C1136.53,588.21 1132.19,578.56 1133.33,566.42 C1134.87,549.86 1146.86,539.69 1166.47,538.31 C1175.93,537.64 1189.04,540.44 1195.05,544.41 C1202.45,549.31 1202.51,557.38 1195.16,560.33 C1191.52,561.79 1191.48,561.78 1188.73,558.46 C1182.33,550.75 1166.21,546.74 1156.53,550.44 C1148.82,553.38 1144.15,561.27 1145.42,569.21 C1146.93,578.68 1151.25,582.32 1166.50,586.99 C1189.89,594.15 1196.18,597.92 1200.65,607.50 C1203.54,613.71 1203.82,624.22 1201.28,632.14 C1198.95,639.44 1191.55,646.87 1183.47,650.02 C1175.77,653.02 1157.46,653.79 1149.10,651.47 ZM 1364.15 650.74 C1357.79,646.39 1351.07,636.78 1343.22,620.83 C1337.99,610.22 1334.77,604.82 1333.25,604.10 C1331.65,603.35 1331.00,602.17 1331.00,600.02 L 1331.00 597.00 L 1338.75 596.98 C1347.94,596.95 1353.04,595.00 1357.65,589.74 C1361.71,585.12 1363.35,580.06 1363.40,572.00 C1363.45,563.96 1361.81,559.03 1357.78,555.09 C1352.53,549.96 1340.29,547.20 1328.41,548.47 L 1322.00 549.16 L 1322.00 586.83 C1322.00,607.83 1322.50,629.37 1323.14,635.50 C1324.93,652.83 1325.19,651.45 1320.08,651.82 C1314.36,652.22 1311.41,651.44 1310.42,649.26 C1309.99,648.29 1309.58,627.03 1309.51,602.00 C1309.44,576.97 1309.02,552.86 1308.56,548.40 C1307.57,538.66 1306.57,539.28 1325.00,538.36 C1344.93,537.37 1359.60,540.54 1367.87,547.62 C1379.23,557.35 1381.07,578.77 1371.68,591.91 C1368.17,596.81 1359.93,602.40 1353.76,604.06 L 1350.02 605.07 L 1356.14 617.29 C1366.50,637.97 1370.25,641.99 1379.17,642.00 C1383.61,642.00 1383.88,642.16 1384.54,645.20 C1385.14,647.89 1384.83,648.75 1382.57,650.70 C1378.77,653.97 1368.89,653.99 1364.15,650.74 ZM 216.23 650.82 C214.98,650.19 213.75,648.74 213.49,647.59 C213.24,646.44 212.81,624.12 212.54,598.00 C212.27,571.88 211.77,548.39 211.43,545.81 L 210.81 541.13 L 214.65 540.39 C216.77,539.99 229.98,539.63 244.00,539.58 C274.72,539.48 275.50,539.68 275.50,547.51 C275.50,553.28 276.00,553.13 262.68,551.16 C258.38,550.52 248.14,550.00 239.93,550.00 L 225.00 550.00 L 225.00 567.98 L 225.00 585.95 L 242.25 586.23 L 259.50 586.50 L 259.79 589.50 C259.96,591.15 259.43,593.40 258.63,594.50 C257.30,596.31 255.69,596.55 241.36,597.00 L 225.55 597.50 L 225.86 618.50 C226.03,630.29 226.59,639.94 227.14,640.50 C228.55,641.95 260.16,641.25 268.00,639.59 C271.58,638.84 274.84,638.42 275.25,638.67 C275.66,638.92 276.00,641.33 276.00,644.02 C276.00,648.07 275.60,649.15 273.75,650.20 C270.67,651.94 219.54,652.49 216.23,650.82 ZM 300.62 649.80 C299.37,647.87 299.06,639.70 298.69,598.50 C298.44,569.77 297.83,547.64 297.22,545.00 C296.64,542.53 296.35,540.32 296.56,540.11 C296.78,539.89 299.10,539.53 301.73,539.30 C308.28,538.73 311.55,541.01 319.39,551.62 C326.51,561.25 345.76,593.02 357.49,614.50 C365.10,628.44 367.75,632.47 366.69,628.50 C366.40,627.40 366.01,606.92 365.83,583.00 L 365.50 539.50 L 368.36 539.17 C371.68,538.79 376.96,540.73 377.08,542.37 C377.13,542.99 377.24,567.91 377.33,597.75 L 377.50 652.00 L 372.97 652.00 C370.48,652.00 367.47,651.32 366.27,650.48 C363.86,648.79 357.24,638.00 338.98,606.00 C332.23,594.17 323.06,578.65 318.60,571.50 L 310.50 558.50 L 310.20 592.00 C310.01,612.24 310.34,629.66 311.02,636.00 C312.87,653.18 313.27,651.46 307.31,651.80 C302.81,652.06 301.91,651.79 300.62,649.80 ZM 430.31 651.24 C427.18,649.18 426.81,644.64 427.52,617.21 C427.91,602.21 427.90,580.90 427.49,569.86 L 426.76 549.80 L 410.93 550.15 C395.35,550.49 395.08,550.46 394.54,548.32 C393.61,544.60 395.52,541.35 399.05,540.64 C400.81,540.29 418.17,540.00 437.62,540.00 L 473.00 540.00 L 473.00 543.44 C473.00,549.18 470.74,550.00 454.93,550.00 L 441.31 550.00 L 440.66 565.75 C439.64,590.24 439.88,624.73 441.15,636.14 C443.00,652.85 443.37,651.46 437.00,651.76 C433.98,651.90 430.97,651.67 430.31,651.24 ZM 752.34 651.00 C751.15,650.52 749.85,649.09 749.44,647.81 C749.04,646.54 748.59,624.35 748.44,598.50 C748.29,572.65 747.76,549.15 747.27,546.28 L 746.37 541.07 L 750.93 540.36 C753.45,539.97 766.75,539.62 780.50,539.58 C809.74,539.49 811.33,539.84 811.76,546.51 C812.16,552.60 811.19,553.44 805.37,552.04 C802.69,551.40 791.61,550.62 780.75,550.31 L 761.00 549.74 L 761.00 567.87 L 761.00 586.00 L 777.93 586.00 C793.74,586.00 794.91,586.13 795.47,587.91 C796.48,591.08 794.93,595.08 792.31,596.07 C790.97,596.58 783.32,597.00 775.31,597.00 L 760.76 597.00 L 761.49 618.75 C761.89,630.71 762.43,640.72 762.69,641.00 C763.72,642.07 797.80,640.92 804.00,639.60 C811.34,638.05 811.97,638.39 811.97,644.00 C811.97,648.98 810.85,650.18 805.35,651.08 C798.79,652.16 755.05,652.09 752.34,651.00 ZM 1055.24 651.01 C1053.99,650.48 1052.53,648.89 1051.99,647.46 C1051.39,645.90 1050.99,627.03 1050.97,600.18 C1050.95,575.61 1050.53,552.36 1050.04,548.52 C1049.54,544.67 1049.37,541.30 1049.65,541.02 C1050.89,539.78 1090.99,538.75 1101.36,539.68 C1113.94,540.82 1115.49,541.83 1114.66,548.33 C1114.39,550.44 1113.94,552.39 1113.66,552.67 C1113.39,552.95 1110.54,552.60 1107.33,551.90 C1101.01,550.53 1064.67,549.98 1064.25,551.25 C1064.11,551.66 1064.00,559.65 1064.00,569.00 L 1064.00 586.00 L 1081.06 586.00 L 1098.11 586.00 L 1097.81 590.23 C1097.36,596.33 1095.51,596.97 1078.10,596.99 L 1063.71 597.00 L 1064.24 618.55 C1064.53,630.41 1065.09,640.42 1065.47,640.80 C1066.70,642.03 1100.17,641.05 1107.00,639.60 C1110.57,638.84 1113.67,638.37 1113.87,638.56 C1114.07,638.75 1114.46,640.90 1114.74,643.35 C1115.19,647.39 1114.98,647.97 1112.41,649.65 C1109.88,651.31 1106.97,651.52 1083.55,651.73 C1068.69,651.86 1056.53,651.55 1055.24,651.01 ZM 1249.44 650.58 C1247.57,649.21 1247.49,647.34 1247.22,599.48 L 1246.95 549.79 L 1230.93 550.15 C1215.17,550.49 1214.90,550.46 1214.37,548.32 C1213.54,545.02 1214.89,541.99 1217.65,540.94 C1219.04,540.42 1236.17,540.00 1256.57,540.00 L 1293.00 540.00 L 1293.00 542.81 C1293.00,544.35 1292.36,546.49 1291.58,547.56 C1290.31,549.30 1288.65,549.53 1275.69,549.82 L 1261.21 550.14 L 1260.49 567.42 C1259.58,589.28 1260.49,638.93 1261.92,645.44 C1262.77,649.27 1262.73,650.55 1261.75,651.17 C1259.68,652.49 1251.52,652.10 1249.44,650.58 ZM 1406.35 651.01 C1405.17,650.53 1403.85,649.56 1403.41,648.86 C1402.97,648.15 1402.53,626.41 1402.43,600.54 C1402.33,574.67 1401.82,550.70 1401.31,547.28 L 1400.37 541.07 L 1404.94 540.36 C1407.45,539.97 1420.75,539.62 1434.50,539.58 C1463.74,539.49 1465.33,539.84 1465.76,546.51 C1466.16,552.60 1465.19,553.44 1459.37,552.04 C1456.69,551.40 1445.61,550.62 1434.75,550.31 L 1415.00 549.74 L 1415.00 567.87 L 1415.00 586.00 L 1431.93 586.00 C1447.74,586.00 1448.91,586.13 1449.47,587.91 C1450.58,591.40 1449.00,594.80 1445.76,595.93 C1444.08,596.52 1436.40,597.00 1428.70,597.00 L 1414.71 597.00 L 1415.43 618.74 C1415.82,630.70 1416.38,640.71 1416.66,640.99 C1417.74,642.07 1451.77,640.93 1458.00,639.60 C1465.34,638.05 1465.97,638.39 1465.97,644.00 C1465.97,648.95 1465.09,649.85 1459.06,650.99 C1452.61,652.21 1409.38,652.23 1406.35,651.01 Z" fill="rgba(235,235,235,1)"/>
</g>
</svg>