<svg xmlns="http://www.w3.org/2000/svg" width="1486" height="706" viewBox="0 0 1486 706">
<g>
<path d="M 268.57 425.43 C268.10,424.96 267.75,424.61 267.51,424.19 C266.79,422.92 267.12,421.05 268.45,413.50 C270.78,400.26 271.32,387.33 270.05,375.53 C267.34,350.39 260.65,332.87 245.32,310.74 C232.15,291.74 226.07,276.20 223.79,255.75 C220.65,227.45 231.42,200.87 251.40,187.61 C256.08,184.51 258.05,183.20 259.12,183.72 C259.91,184.10 260.23,185.47 260.77,187.82 C263.58,200.02 270.83,210.90 281.31,218.69 C288.86,224.30 301.50,230.40 310.46,232.75 C316.99,234.46 317.34,234.73 327.25,245.50 C342.15,261.68 347.70,265.12 359.02,265.17 C382.02,265.28 396.51,244.58 388.18,223.50 C387.31,221.30 381.80,213.16 375.92,205.42 C370.05,197.67 364.75,190.39 364.13,189.24 C363.51,188.09 362.09,182.37 360.96,176.52 C356.23,152.00 345.10,129.52 328.60,111.11 C325.00,107.10 320.81,101.27 319.28,98.16 C315.84,91.15 315.44,83.77 316.83,53.00 C317.36,41.17 317.72,31.41 317.61,31.29 C317.50,31.18 305.22,40.00 290.31,50.90 L 263.21 70.71 L 258.35 69.92 C250.22,68.58 226.79,68.91 214.30,70.54 C154.51,78.33 104.99,110.09 73.96,160.53 C58.66,185.41 50.83,214.67 50.91,246.68 C50.99,277.80 58.08,302.04 74.11,326.01 C85.68,343.30 111.75,367.96 134.46,383.09 C150.63,393.85 176.72,405.89 191.07,409.21 C196.64,410.49 198.71,412.80 197.06,415.88 C195.49,418.81 193.31,419.13 186.66,417.42 C137.42,404.72 78.84,358.44 56.98,314.97 C38.35,277.90 36.52,230.51 52.00,185.62 C56.79,171.72 60.24,164.59 67.73,153.04 C103.37,98.15 154.28,67.47 221.01,60.67 L 233.50 59.40 L 224.00 57.45 C209.63,54.50 176.62,54.72 162.00,57.85 C140.42,62.49 118.45,71.19 100.19,82.32 C53.14,111.02 23.03,154.72 12.34,209.78 C9.95,222.06 9.67,225.86 9.62,246.00 C9.58,265.21 9.91,270.39 11.88,281.44 C14.46,295.99 17.45,306.95 22.54,320.54 C26.12,330.10 26.19,332.49 22.91,333.53 C18.89,334.81 17.31,333.12 13.72,323.72 C5.59,302.47 1.12,279.55 0.31,255.00 C-1.73,193.61 22.25,135.70 65.83,96.75 C94.48,71.14 131.39,53.43 168.65,47.40 C181.60,45.31 205.81,45.04 217.50,46.87 C228.85,48.65 242.96,52.48 253.17,56.57 L 261.94 60.08 L 288.72 40.50 C313.81,22.16 315.75,20.95 319.40,21.21 C322.25,21.42 323.83,22.21 325.26,24.14 C327.18,26.71 327.20,27.54 326.04,55.91 C325.38,71.92 325.16,86.49 325.55,88.26 C326.73,93.75 329.74,98.65 336.59,106.23 C353.26,124.67 365.17,148.71 369.98,173.63 C371.12,179.53 372.42,184.84 372.87,185.43 C373.33,186.02 377.95,191.90 383.14,198.50 C388.33,205.10 393.53,212.07 394.70,214.00 C400.91,224.24 401.69,240.58 396.49,251.48 C392.72,259.39 385.60,266.35 377.24,270.31 C370.99,273.27 369.74,273.50 359.98,273.50 C350.02,273.50 349.09,273.32 342.49,270.07 C336.83,267.28 333.38,264.43 324.14,254.88 C313.09,243.47 312.55,243.06 305.63,240.99 C283.12,234.25 265.41,220.53 256.76,203.11 L 253.59 196.72 L 247.90 202.78 C237.27,214.09 232.53,227.52 232.66,246.00 C232.83,269.56 238.57,285.44 255.22,308.49 C265.87,323.23 273.70,341.77 277.66,361.63 C280.08,373.80 280.09,400.84 277.67,413.96 C275.47,425.89 272.62,429.48 268.57,425.43 ZM 607.67 437.30 C606.88,435.76 592.85,406.38 576.51,372.00 C560.16,337.62 546.39,309.07 545.89,308.55 C544.39,306.96 544.77,416.99 546.28,420.00 C546.97,421.38 548.98,423.23 550.75,424.12 C555.71,426.60 557.00,428.01 557.00,430.92 C557.00,435.74 555.93,436.00 536.50,436.00 C516.95,436.00 516.00,435.76 516.00,430.75 C516.00,428.57 516.75,427.51 519.21,426.20 C520.97,425.27 523.68,423.29 525.23,421.81 L 528.04 419.11 L 527.77 348.94 C527.51,280.07 527.46,278.74 525.50,277.34 C524.40,276.56 521.92,274.91 520.00,273.68 C517.45,272.05 516.42,270.60 516.20,268.38 C515.69,263.23 516.94,262.93 537.08,263.23 L 555.40 263.50 L 586.70 327.50 C603.91,362.70 618.33,391.59 618.75,391.71 C619.16,391.82 633.11,363.02 649.73,327.71 L 679.97 263.50 L 699.10 263.23 C719.80,262.93 721.00,263.20 721.00,268.05 C721.00,270.89 717.12,275.00 714.44,275.00 C713.73,275.00 712.21,276.19 711.07,277.63 C709.02,280.24 709.00,280.97 709.00,349.71 L 709.00 419.15 L 711.79 421.83 C713.33,423.30 716.03,425.27 717.79,426.20 C720.25,427.51 721.00,428.57 721.00,430.75 C721.00,435.88 720.40,436.00 695.42,436.00 C670.14,436.00 669.54,435.86 670.18,430.34 C670.48,427.75 671.99,426.33 678.63,422.39 C680.41,421.33 680.52,418.57 681.00,362.14 C681.28,329.61 681.28,303.01 681.00,303.02 C680.72,303.03 666.31,333.74 648.97,371.27 L 617.44 439.50 L 613.27 439.80 C609.58,440.08 608.95,439.79 607.67,437.30 ZM 936.57 434.43 C935.71,433.56 935.00,431.99 935.00,430.93 C935.00,428.95 938.28,425.00 939.92,425.00 C940.43,425.00 942.23,423.83 943.92,422.41 L 947.00 419.82 L 947.00 279.35 L 944.75 277.29 C943.51,276.16 941.07,274.51 939.32,273.63 C934.21,271.05 933.63,264.63 938.41,263.43 C939.66,263.12 959.77,263.03 983.09,263.24 C1023.40,263.61 1025.86,263.74 1032.84,265.84 C1043.12,268.94 1048.76,272.07 1054.19,277.67 C1062.64,286.39 1066.26,296.28 1066.21,310.50 C1066.16,324.28 1062.04,334.12 1052.74,342.68 C1047.40,347.59 1042.85,350.05 1032.86,353.41 C1028.83,354.77 1025.45,356.24 1025.34,356.69 C1025.22,357.14 1036.71,372.58 1050.87,391.00 L 1076.61 424.50 L 1081.56 425.73 C1088.66,427.51 1090.56,431.21 1086.17,434.75 C1083.68,436.76 1051.14,436.49 1048.21,434.43 C1045.49,432.53 1037.16,421.57 1012.57,387.54 C1002.25,373.27 992.84,360.36 991.66,358.85 C989.67,356.33 988.93,356.11 982.25,356.06 L 975.00 356.00 L 975.00 388.00 C975.00,418.67 975.08,420.08 977.00,422.00 C978.10,423.10 979.42,424.00 979.92,424.00 C981.74,424.00 987.00,429.21 987.00,431.02 C987.00,432.03 986.29,433.56 985.43,434.43 C984.09,435.77 980.45,436.00 961.00,436.00 C941.55,436.00 937.91,435.77 936.57,434.43 ZM 1173.20 434.80 C1170.16,431.76 1172.91,428.16 1181.39,424.05 C1183.74,422.91 1186.61,420.97 1187.77,419.74 C1188.93,418.51 1205.39,382.46 1224.35,339.64 C1243.31,296.82 1259.25,261.35 1259.77,260.83 C1260.29,260.31 1263.10,260.02 1266.01,260.19 L 1271.31 260.50 L 1276.21 272.00 C1306.92,344.07 1338.90,416.92 1340.84,419.23 C1342.18,420.81 1345.82,423.40 1348.94,424.97 C1356.30,428.68 1357.65,430.28 1356.17,433.53 L 1355.04 436.00 L 1332.02 436.00 C1310.33,436.00 1308.88,435.88 1307.00,434.00 C1304.13,431.13 1304.51,428.86 1308.50,425.00 C1311.03,422.55 1311.85,421.03 1311.44,419.55 C1310.55,416.33 1294.82,379.65 1293.73,378.25 C1292.99,377.30 1285.22,377.00 1261.00,377.00 C1236.78,377.00 1229.01,377.30 1228.27,378.25 C1227.73,378.94 1223.59,388.45 1219.05,399.39 C1212.36,415.54 1210.92,419.90 1211.41,422.64 C1211.73,424.49 1212.27,427.50 1212.59,429.34 C1213.69,435.54 1212.28,436.00 1192.13,436.00 C1179.67,436.00 1174.04,435.64 1173.20,434.80 ZM 735.77 434.25 C733.17,431.31 735.25,428.50 743.02,424.42 C746.96,422.35 750.81,419.69 751.59,418.50 C752.63,416.92 818.35,269.52 821.71,261.25 C822.03,260.45 824.30,260.00 827.97,260.00 L 833.73 260.00 L 844.74 285.75 C885.12,380.13 901.63,417.42 904.01,419.67 C905.43,421.01 909.27,423.58 912.54,425.39 C917.33,428.04 918.56,429.23 918.83,431.48 C919.01,433.05 918.57,434.65 917.83,435.13 C917.10,435.59 906.59,435.98 894.47,435.98 C876.14,436.00 872.07,435.74 870.22,434.44 C867.15,432.29 867.44,428.91 871.00,425.50 C872.86,423.71 873.98,421.66 873.94,420.06 C873.91,418.65 869.95,408.50 865.14,397.50 L 856.39 377.50 L 790.88 377.50 L 782.93 396.50 C772.55,421.28 772.27,422.24 774.36,425.42 C776.41,428.56 776.44,430.93 774.44,433.78 C772.93,435.93 772.35,436.00 755.10,436.00 C739.41,436.00 737.13,435.79 735.77,434.25 ZM 654.22 176.82 C651.53,174.13 653.96,171.17 662.73,166.50 C665.60,164.96 668.68,162.91 669.56,161.93 C670.44,160.96 686.78,124.91 705.86,81.83 L 740.54 3.50 L 752.72 2.91 L 756.49 11.71 C794.10,99.54 820.61,159.98 822.33,161.85 C823.53,163.14 827.00,165.47 830.06,167.02 C836.63,170.35 838.27,172.08 837.83,175.19 L 837.50 177.50 L 813.77 177.77 C791.11,178.02 789.94,177.94 788.02,176.02 C785.31,173.31 785.43,172.63 789.50,168.13 C791.42,166.00 792.98,163.41 792.95,162.38 C792.92,161.35 788.96,151.50 784.16,140.50 L 775.44 120.50 L 742.47 120.25 L 709.50 120.01 L 700.75 141.03 C695.94,152.60 692.00,162.91 692.00,163.95 C692.00,164.99 692.79,167.22 693.75,168.91 C695.35,171.71 695.36,172.22 693.96,174.74 L 692.43 177.50 L 673.93 177.77 C660.40,177.97 655.12,177.72 654.22,176.82 ZM 873.48 181.45 C869.07,180.71 863.70,179.51 861.55,178.80 L 857.65 177.50 L 851.85 161.50 C845.56,144.18 845.04,141.18 847.83,138.65 C851.94,134.94 855.73,137.40 860.47,146.88 C864.27,154.48 871.36,161.21 878.56,164.08 C883.79,166.16 886.17,166.44 898.50,166.47 C912.38,166.50 912.56,166.47 919.82,163.07 C933.40,156.70 940.16,145.93 940.32,130.38 C940.39,123.57 940.00,121.47 937.90,117.39 C932.91,107.69 924.49,104.00 898.44,100.07 C878.26,97.02 865.90,91.95 858.16,83.56 C845.49,69.82 843.43,47.11 853.18,28.82 C857.48,20.75 868.35,10.69 877.43,6.37 C888.06,1.33 897.20,-0.31 911.00,0.35 C925.52,1.05 936.97,3.84 948.75,9.56 C953.37,11.80 955.85,12.71 957.01,14.49 C958.53,16.82 957.78,20.61 956.57,30.76 C955.83,36.95 954.65,42.71 953.95,43.56 C951.75,46.21 946.82,44.98 944.51,41.20 C936.30,27.75 927.14,19.47 917.66,16.90 C911.30,15.19 897.46,16.24 891.39,18.89 C880.99,23.44 874.99,32.92 874.21,46.04 C873.41,59.53 879.12,67.97 891.44,71.51 C894.22,72.31 903.70,74.12 912.50,75.53 C932.31,78.70 938.73,80.33 946.20,84.10 C953.73,87.90 959.16,93.55 963.23,101.83 C966.17,107.78 966.52,109.46 966.85,119.17 C967.15,127.95 966.84,131.17 965.14,136.71 C958.10,159.73 935.72,177.44 908.00,181.93 C899.34,183.34 883.37,183.11 873.48,181.45 ZM 1398.00 440.02 C1386.36,438.51 1377.05,435.97 1376.01,434.02 C1375.47,433.02 1372.50,425.07 1369.40,416.35 C1364.29,401.99 1363.89,400.29 1365.13,398.11 C1367.00,394.84 1370.24,393.78 1372.84,395.60 C1373.98,396.40 1376.35,399.76 1378.12,403.07 C1385.40,416.74 1393.55,422.32 1409.10,424.28 C1425.93,426.41 1440.78,422.22 1449.52,412.88 C1456.52,405.39 1458.33,400.42 1458.42,388.43 C1458.50,378.90 1458.34,378.10 1455.47,373.46 C1450.10,364.75 1441.13,361.11 1416.25,357.51 C1390.44,353.78 1374.81,344.45 1368.91,329.25 C1365.82,321.28 1365.11,305.58 1367.48,297.38 C1372.79,278.98 1388.77,264.09 1408.10,259.54 C1426.30,255.25 1453.35,259.33 1471.34,269.08 C1476.85,272.07 1477.15,272.42 1476.65,275.37 C1476.37,277.09 1475.58,283.38 1474.91,289.33 C1473.59,301.05 1472.45,303.31 1468.13,302.80 C1466.10,302.57 1464.25,300.61 1459.83,294.01 C1451.63,281.78 1444.06,276.17 1432.49,273.74 C1421.86,271.51 1406.53,276.04 1400.47,283.20 C1392.47,292.66 1390.04,307.51 1394.88,317.34 C1397.50,322.66 1403.17,327.38 1408.89,329.01 C1410.87,329.58 1420.82,331.41 1430.98,333.07 C1460.11,337.85 1471.26,342.65 1478.48,353.53 C1483.13,360.54 1484.92,365.78 1485.66,374.54 C1486.47,384.13 1484.63,393.91 1480.30,403.00 C1472.80,418.76 1453.57,433.27 1434.00,437.94 C1424.39,440.24 1407.28,441.22 1398.00,440.02 ZM 517.20 176.80 C515.53,175.13 515.70,171.44 517.55,169.60 C518.40,168.75 520.58,167.34 522.41,166.48 C524.23,165.61 526.24,163.78 526.86,162.40 C527.68,160.61 528.00,140.63 528.00,91.90 C528.00,28.12 528.03,20.18 524.58,18.15 C524.06,17.84 523.46,17.67 522.76,17.46 C519.43,16.44 516.00,12.95 516.02,10.58 C516.05,5.62 516.48,5.52 539.76,5.20 C564.18,4.86 567.00,5.33 567.00,9.78 C567.00,13.38 565.43,15.35 560.89,17.44 C558.90,18.35 556.76,20.22 556.14,21.60 C555.32,23.39 555.00,43.61 555.00,93.05 L 555.00 162.00 L 581.75 161.98 C605.46,161.96 608.95,161.75 612.50,160.14 C614.97,159.01 620.08,154.43 625.86,148.16 C633.27,140.12 635.78,138.00 637.91,138.00 C641.07,138.00 643.00,139.64 643.00,142.31 C643.00,143.36 640.90,151.82 638.32,161.11 L 633.65 178.00 L 576.02 178.00 C532.54,178.00 518.11,177.71 517.20,176.80 ZM 1103.20 434.80 C1100.17,431.77 1102.62,426.11 1107.62,424.59 C1108.78,424.24 1110.58,423.01 1111.62,421.87 C1113.42,419.88 1113.51,416.74 1113.80,352.15 C1114.01,305.32 1113.77,283.35 1113.02,280.76 C1112.25,278.12 1110.97,276.53 1108.71,275.39 C1103.78,272.89 1102.00,270.94 1102.00,268.05 C1102.00,263.15 1102.76,263.00 1127.50,263.00 C1152.30,263.00 1153.00,263.14 1153.00,268.13 C1153.00,270.89 1149.08,275.00 1146.44,275.00 C1145.73,275.00 1144.21,276.19 1143.07,277.63 C1141.02,280.24 1141.00,280.97 1141.00,349.71 L 1141.00 419.15 L 1143.79 421.83 C1145.33,423.30 1148.03,425.27 1149.79,426.20 C1152.25,427.51 1153.00,428.57 1153.00,430.75 C1153.00,432.32 1152.46,434.14 1151.80,434.80 C1150.10,436.50 1104.90,436.50 1103.20,434.80 ZM 421.00 0.00 L 432.00 0.00 L 432.00 447.00 L 421.00 447.00 L 421.00 0.00 ZM 1011.36 341.51 C1027.80,338.03 1037.10,326.96 1037.18,310.77 C1037.25,298.95 1032.76,289.68 1024.24,284.03 C1016.53,278.93 1011.62,278.00 992.32,278.00 L 975.00 278.00 L 975.00 343.00 L 989.75 342.98 C998.77,342.97 1007.16,342.40 1011.36,341.51 ZM 168.48 383.99 C113.85,355.33 80.64,315.17 72.61,268.07 C65.43,225.96 80.29,172.64 109.02,137.48 C114.86,130.33 126.13,119.27 130.49,116.41 C133.53,114.42 136.80,115.37 137.58,118.48 C138.08,120.46 136.34,122.64 126.25,132.66 C112.70,146.12 103.89,158.54 96.14,175.08 C75.69,218.77 74.77,264.08 93.59,301.38 C99.97,314.04 107.09,323.96 117.95,335.29 C133.64,351.68 150.70,364.23 172.44,375.38 C185.47,382.06 187.06,383.80 183.43,387.43 C180.97,389.88 178.73,389.37 168.48,383.99 ZM 1287.00 362.43 C1287.00,361.90 1261.02,300.80 1260.57,300.27 C1260.46,300.14 1256.49,309.37 1251.76,320.77 C1247.02,332.17 1241.11,346.34 1238.63,352.25 L 1234.12 363.00 L 1260.56 363.00 C1275.10,363.00 1287.00,362.74 1287.00,362.43 ZM 849.83 362.12 C847.05,354.78 823.51,301.01 823.09,301.02 C822.67,301.03 801.85,350.13 797.17,362.14 C796.98,362.62 808.83,363.00 823.50,363.00 C838.42,363.00 850.02,362.61 849.83,362.12 ZM 755.84 74.75 C748.70,58.11 742.54,44.17 742.15,43.76 C741.62,43.22 724.04,83.98 716.28,103.75 C715.89,104.73 721.49,105.00 742.30,105.00 L 768.81 105.00 ZM 295.57 93.43 C294.42,92.28 294.00,89.85 294.00,84.39 L 294.00 76.93 L 288.15 81.06 C282.05,85.36 278.59,85.91 276.69,82.89 C276.14,82.00 275.95,80.56 276.29,79.70 C276.62,78.83 282.65,73.78 289.70,68.49 L 302.50 58.86 L 302.77 75.55 C303.06,92.84 302.63,95.00 298.95,95.00 C297.96,95.00 296.44,94.29 295.57,93.43 ZM 325.25 146.75 C324.70,146.06 323.35,143.48 322.25,141.00 C321.15,138.52 318.39,134.72 316.12,132.55 C311.50,128.11 310.99,125.82 314.15,123.61 C316.86,121.71 319.83,123.07 325.14,128.67 C330.97,134.80 333.95,142.36 331.99,146.02 C330.80,148.24 326.78,148.68 325.25,146.75 Z" fill="rgba(164,138,43,1)"/>
<path d="M 136.00 604.05 C117.57,600.60 103.61,586.94 98.51,567.37 C96.50,559.65 96.51,540.32 98.53,532.46 C100.83,523.51 104.88,516.21 111.00,509.97 C121.70,499.05 138.99,493.98 155.11,497.01 C166.76,499.21 174.47,504.99 175.68,512.43 C176.15,515.30 175.78,516.30 173.47,518.44 C169.41,522.20 167.00,521.67 163.50,516.23 C159.06,509.34 152.90,506.49 142.52,506.53 C135.83,506.55 133.66,507.00 129.44,509.20 C116.68,515.86 110.00,529.36 110.00,548.47 C110.00,569.35 117.92,585.36 131.58,592.08 C135.69,594.10 137.99,594.50 145.50,594.49 C153.34,594.48 155.16,594.13 159.65,591.78 C162.48,590.29 166.14,587.44 167.79,585.44 C170.75,581.84 170.80,581.83 173.40,583.53 C178.56,586.91 177.95,593.77 172.14,597.68 C163.79,603.31 147.44,606.20 136.00,604.05 ZM 514.50 603.61 C507.85,600.69 500.16,590.19 491.35,572.00 C488.29,565.67 484.67,559.58 483.30,558.47 C481.60,557.08 480.92,555.66 481.15,554.01 C481.47,551.76 481.87,551.60 486.64,551.86 C493.19,552.21 499.58,550.51 503.87,547.27 C513.06,540.31 514.50,520.57 506.41,512.48 C501.59,507.66 494.69,505.85 482.44,506.21 L 472.66 506.50 L 472.89 546.50 C473.08,580.25 473.68,594.06 475.24,601.12 C475.95,604.32 463.82,604.41 462.12,601.21 C461.62,600.27 460.96,578.35 460.65,552.50 C460.33,526.65 459.79,503.85 459.44,501.83 L 458.80 498.15 L 463.65 497.37 C471.71,496.07 493.99,496.40 500.00,497.90 C516.57,502.04 525.00,512.19 525.00,528.00 C525.00,537.57 522.59,543.57 516.16,550.00 C511.89,554.27 509.06,556.15 504.70,557.60 L 498.90 559.53 L 505.20 572.02 C509.24,580.03 513.14,586.20 516.07,589.25 C520.34,593.69 520.96,594.00 525.71,594.00 C530.30,594.00 530.84,594.24 531.42,596.52 C532.33,600.16 530.52,602.76 526.24,603.95 C521.35,605.31 518.17,605.22 514.50,603.61 ZM 580.40 603.58 C562.93,599.59 550.40,586.63 545.52,567.54 C543.54,559.79 543.55,541.52 545.54,533.09 C548.82,519.18 558.51,506.51 570.05,501.05 C586.13,493.45 608.00,495.14 621.11,504.99 C634.23,514.85 640.94,530.16 640.98,550.30 C641.03,575.88 629.13,595.25 609.12,602.13 C601.69,604.69 588.22,605.37 580.40,603.58 ZM 608.18 591.64 C614.97,588.39 619.30,583.73 623.12,575.55 C632.88,554.69 626.35,522.01 610.29,511.30 C596.87,502.34 577.56,504.91 566.60,517.10 C560.14,524.29 557.76,531.14 557.22,544.21 C556.23,568.36 565.05,586.91 580.42,593.00 C587.90,595.97 600.42,595.35 608.18,591.64 ZM 819.12 603.87 C794.72,599.82 778.57,575.48 780.39,545.50 C781.35,529.73 786.34,517.75 795.62,508.98 C808.28,497.00 829.75,492.82 846.47,499.08 C857.45,503.18 862.78,513.88 856.37,518.93 C853.73,521.00 850.00,521.73 850.00,520.18 C850.00,519.73 848.34,517.42 846.31,515.04 C832.97,499.46 807.85,504.85 798.04,525.41 C788.29,545.85 794.31,577.52 810.14,588.98 C822.41,597.88 840.61,596.57 850.70,586.07 L 854.72 581.89 L 857.86 584.53 C862.06,588.07 862.03,591.63 857.75,595.69 C849.67,603.36 834.89,606.49 819.12,603.87 ZM 905.84 603.68 C896.88,601.65 891.06,597.48 887.52,590.53 L 884.50 584.63 L 884.50 544.56 C884.50,522.53 884.12,503.08 883.65,501.36 C882.81,498.28 882.88,498.20 886.65,497.59 C892.07,496.72 896.25,498.12 897.81,501.33 C898.87,503.52 898.91,508.10 898.00,525.76 C896.33,558.09 896.26,576.82 897.80,581.17 C899.72,586.60 906.60,592.46 912.76,593.94 C921.25,595.98 933.92,592.36 943.83,585.06 L 948.15 581.88 L 947.83 539.94 L 947.50 498.00 L 950.66 497.40 C953.91,496.79 957.60,497.52 959.68,499.19 C960.57,499.90 960.72,510.05 960.30,540.31 C959.78,577.67 960.34,592.29 962.59,600.62 C963.08,602.43 962.63,602.85 959.52,603.43 C957.48,603.81 954.36,603.61 952.44,602.98 C949.08,601.87 948.49,600.90 947.78,595.30 C947.51,593.15 947.37,593.18 942.12,596.50 C931.12,603.46 917.13,606.23 905.84,603.68 ZM 1086.00 604.05 C1068.53,600.76 1059.35,590.93 1067.58,584.34 C1069.19,583.06 1070.89,582.01 1071.37,582.00 C1071.84,582.00 1073.98,583.74 1076.11,585.88 C1084.18,593.94 1101.26,597.09 1110.62,592.23 C1118.39,588.20 1121.99,581.48 1120.68,573.43 C1119.41,565.57 1112.87,560.95 1095.79,555.85 C1083.58,552.20 1079.24,550.12 1074.01,545.39 C1062.70,535.17 1064.22,512.73 1076.86,503.46 C1083.78,498.38 1090.01,496.56 1100.50,496.55 C1120.79,496.54 1134.84,505.65 1128.50,514.70 C1127.67,515.88 1125.74,517.12 1124.20,517.46 C1121.88,517.97 1120.69,517.40 1117.27,514.14 C1112.27,509.39 1104.98,506.76 1096.61,506.70 C1085.94,506.62 1078.98,512.21 1078.21,521.47 C1077.28,532.73 1081.64,537.22 1098.71,542.54 C1114.95,547.60 1121.82,550.91 1126.19,555.77 C1130.95,561.06 1132.31,565.83 1131.86,575.60 C1131.23,589.07 1125.26,597.14 1112.33,601.98 C1105.89,604.39 1093.13,605.39 1086.00,604.05 ZM 1286.13 603.46 C1279.31,600.50 1272.71,591.61 1263.33,572.78 C1259.70,565.48 1256.40,559.37 1256.00,559.21 C1253.12,558.07 1251.91,556.22 1252.49,553.88 C1253.09,551.50 1253.44,551.37 1258.32,551.78 C1268.60,552.63 1277.30,547.95 1281.14,539.51 C1283.35,534.63 1283.63,522.45 1281.64,517.67 C1278.33,509.76 1269.33,506.00 1253.70,506.00 L 1243.77 506.00 L 1244.31 548.75 C1244.64,574.65 1245.30,593.61 1245.99,596.85 C1246.62,599.80 1246.87,602.46 1246.55,602.78 C1246.24,603.10 1243.69,603.39 1240.90,603.43 C1231.72,603.56 1232.23,606.64 1231.82,548.75 C1231.62,521.11 1231.54,498.35 1231.64,498.18 C1231.74,498.00 1236.66,497.36 1242.58,496.76 C1260.95,494.90 1277.72,497.87 1286.43,504.52 C1297.47,512.93 1300.04,533.24 1291.65,545.78 C1288.11,551.08 1280.78,556.44 1274.91,558.02 C1272.76,558.60 1271.00,559.40 1271.00,559.80 C1271.00,561.30 1283.09,584.26 1285.65,587.60 C1289.06,592.08 1291.34,593.30 1297.49,593.96 C1302.82,594.54 1303.78,595.77 1302.58,600.53 C1301.56,604.60 1292.48,606.21 1286.13,603.46 ZM 211.30 603.15 C206.74,602.79 202.52,601.92 201.80,601.20 C200.79,600.19 200.37,589.19 199.89,551.70 C199.56,525.19 198.95,502.52 198.54,501.31 C197.89,499.39 198.24,499.05 201.47,498.44 C203.49,498.06 216.03,497.69 229.32,497.62 C258.39,497.47 259.54,497.77 259.44,505.26 C259.40,507.84 259.13,510.20 258.83,510.51 C258.52,510.81 256.98,510.51 255.39,509.85 C253.60,509.11 244.80,508.49 232.25,508.22 L 212.00 507.79 L 212.00 525.05 L 212.00 542.31 L 228.00 541.71 L 244.00 541.12 L 244.00 544.94 C244.00,550.92 242.68,551.43 226.20,551.86 L 211.69 552.23 L 212.31 572.25 C212.65,583.26 213.21,592.54 213.56,592.88 C214.76,594.06 246.91,593.06 253.01,591.65 C258.95,590.28 259.03,590.29 259.59,592.51 C260.66,596.76 259.62,600.43 256.99,601.68 C253.99,603.11 223.26,604.10 211.30,603.15 ZM 283.86 602.09 L 281.50 600.18 L 281.42 556.84 C281.36,526.99 280.94,511.22 280.08,506.17 C279.39,502.14 279.05,498.62 279.33,498.34 C279.61,498.06 281.60,497.60 283.75,497.31 C289.47,496.54 292.92,498.80 299.64,507.72 C306.22,516.46 326.40,549.67 337.28,569.68 C341.23,576.94 344.51,582.79 344.57,582.69 C344.62,582.58 344.39,563.60 344.05,540.50 C343.63,512.07 343.77,498.25 344.47,497.71 C345.95,496.58 352.11,497.68 353.81,499.38 C355.03,500.60 355.27,508.81 355.38,551.89 L 355.50 602.95 L 353.00 603.48 C345.38,605.09 343.15,602.39 323.22,567.48 C310.43,545.07 298.52,525.09 294.40,519.14 L 291.89 515.50 L 292.30 555.00 C292.54,578.15 293.15,596.08 293.77,598.31 C294.75,601.88 294.66,602.18 292.34,603.06 C288.66,604.46 286.48,604.21 283.86,602.09 ZM 406.32 603.04 C405.11,602.53 403.65,601.22 403.07,600.12 C402.36,598.80 402.00,583.05 402.00,553.09 L 402.00 508.05 L 386.75 507.78 L 371.50 507.50 L 371.21 505.00 C371.05,503.62 371.57,501.60 372.38,500.50 C373.78,498.57 375.17,498.49 409.42,498.21 L 445.00 497.93 L 445.00 501.34 C445.00,503.22 444.41,505.24 443.69,505.84 C442.97,506.44 436.33,507.17 428.94,507.47 L 415.50 508.01 L 414.70 522.75 C413.64,542.42 414.47,590.06 415.99,596.82 C416.65,599.74 417.02,602.31 416.81,602.52 C415.84,603.50 408.27,603.87 406.32,603.04 ZM 715.21 603.15 C706.92,602.50 705.23,601.66 704.89,598.00 C704.81,597.17 704.64,577.15 704.51,553.50 C704.37,529.85 703.83,507.93 703.30,504.79 L 702.34 499.07 L 706.92 498.38 C709.44,498.00 721.85,497.65 734.50,497.60 C760.30,497.49 763.22,498.06 763.83,503.38 C764.01,504.95 763.91,507.24 763.60,508.46 C763.06,510.63 762.92,510.65 756.77,509.36 C753.01,508.57 743.55,508.03 733.13,508.02 L 715.77 508.00 L 716.23 524.75 L 716.69 541.50 L 732.60 541.50 L 748.50 541.50 L 748.76 544.50 C748.90,546.15 748.63,548.10 748.16,548.82 C746.77,550.94 740.33,551.95 728.00,551.98 L 716.50 552.00 L 716.79 572.43 L 717.08 592.87 L 722.55 593.55 C729.05,594.36 756.37,592.57 760.31,591.07 C763.62,589.81 764.29,590.87 763.82,596.64 C763.57,599.59 762.92,600.76 760.99,601.68 C757.99,603.11 727.28,604.10 715.21,603.15 ZM 1000.30 603.15 C995.73,602.79 991.52,601.92 990.80,601.20 C989.78,600.18 989.46,590.36 989.31,555.70 C989.21,531.39 988.73,508.70 988.25,505.28 L 987.37 499.07 L 991.94 498.38 C994.45,498.00 1006.85,497.65 1019.50,497.60 C1045.30,497.49 1048.22,498.06 1048.83,503.38 C1049.01,504.95 1048.91,507.24 1048.60,508.46 C1048.06,510.63 1047.92,510.65 1041.77,509.36 C1038.02,508.57 1028.56,508.03 1018.23,508.02 L 1000.95 508.00 L 1001.23 524.75 L 1001.50 541.50 L 1017.21 541.33 C1031.64,541.18 1032.97,541.32 1033.50,543.00 C1034.34,545.66 1033.08,549.74 1031.16,550.59 C1030.25,550.99 1023.07,551.52 1015.22,551.77 L 1000.94 552.22 L 1001.61 572.36 C1001.97,583.44 1002.48,592.72 1002.73,593.00 C1002.98,593.28 1010.31,593.42 1019.03,593.31 C1032.55,593.15 1039.12,592.57 1047.02,590.83 C1048.17,590.57 1048.50,591.61 1048.50,595.49 C1048.50,599.82 1048.17,600.63 1045.99,601.68 C1042.99,603.11 1012.30,604.10 1000.30,603.15 ZM 1177.25 603.01 C1176.01,602.49 1174.90,601.94 1174.77,601.78 C1174.65,601.63 1174.31,580.42 1174.02,554.65 L 1173.50 507.80 L 1158.19 507.95 L 1142.87 508.09 L 1143.19 504.32 C1143.70,498.11 1144.18,498.03 1182.28,498.01 C1218.94,498.00 1218.01,497.85 1216.61,503.44 C1215.80,506.63 1214.68,506.90 1199.97,507.50 L 1187.50 508.01 L 1186.70 514.76 C1185.59,524.05 1186.47,593.59 1187.76,598.26 C1188.33,600.32 1188.46,602.22 1188.05,602.47 C1186.32,603.54 1179.32,603.89 1177.25,603.01 ZM 1331.17 603.15 C1324.55,602.63 1322.54,602.10 1321.42,600.56 C1320.25,598.96 1320.00,591.52 1319.98,558.56 C1319.97,536.53 1319.52,514.27 1318.97,509.09 C1318.43,503.92 1318.24,499.43 1318.55,499.11 C1319.82,497.85 1357.72,496.79 1367.40,497.75 C1379.66,498.97 1381.86,500.98 1379.03,508.42 C1378.14,510.76 1377.83,510.88 1375.28,509.81 C1373.60,509.10 1364.26,508.48 1351.60,508.22 C1332.32,507.83 1330.76,507.92 1331.35,509.48 C1331.71,510.41 1332.00,518.17 1332.00,526.74 L 1332.00 542.31 L 1348.00 541.71 L 1364.00 541.12 L 1364.00 544.94 C1364.00,550.91 1362.68,551.43 1346.26,551.85 L 1331.80 552.23 L 1332.15 572.03 C1332.34,582.92 1332.88,592.21 1333.34,592.67 C1335.37,594.67 1370.99,592.90 1377.19,590.49 C1378.53,589.97 1379.02,590.59 1379.56,593.49 C1380.49,598.44 1378.90,601.57 1375.06,602.34 C1370.15,603.32 1340.35,603.87 1331.17,603.15 Z" fill="rgba(235,235,235,1)"/>
</g>
</svg>